<svg version="1.2" xmlns="http://www.w3.org/2000/svg" viewBox="0 0 768 768" width="32" height="32">
	<title>ForceOff</title>
	<path id="I/O" fill-rule="evenodd" fill="#ffffff" d="m426.7 394.3c0 22.9-19.1 41.3-42.7 41.3-23.6 0-42.7-18.4-42.7-41.3v-289c0-22.8 19.1-41.3 42.7-41.3 23.6 0 42.7 18.5 42.7 41.3zm-277.5 0c0 125.4 105.1 227.1 234.7 227.1q8.2 0 16.3-0.6c3.1 29.2 12.5 56.4 26.8 80.4-14.1 1.8-28.4 2.8-43 2.8-176.7 0-320-138.7-320-309.7 0-95.8 44.9-181.4 115.3-238.2 18.2-14.6 45.1-12.3 60.2 5.3 15 17.5 12.6 43.6-5.5 58.2-51.9 41.7-84.8 104.5-84.8 174.7zm469.3 0c0-70.2-32.8-133-84.6-174.7-18-14.6-20.6-40.8-5.5-58.2 15.1-17.4 42-19.9 60.1-5.3 70.4 56.8 115.5 142.4 115.5 238.2q0 16.8-1.8 33.2c-24.9-15-53.3-24.7-83.7-27.6q0-2.8 0-5.6z"/>
	<path id="Circle + Exclamation" fill-rule="evenodd" fill="#ffffff" d="m599 744c-80.2 0-145-64.8-145-145 0-80.2 64.8-145 145-145 80.2 0 145 64.8 145 145 0 80.2-64.8 145-145 145zm30-70c0-16.6-13.4-30-30-30-16.6 0-30 13.4-30 30 0 16.6 13.4 30 30 30 16.6 0 30-13.4 30-30zm-51-128l6 81h28l6-81v-46h-40z"/>
</svg>
