<svg version="1.2" xmlns="http://www.w3.org/2000/svg" viewBox="0 0 768 768" width="32" height="32">
	<title>Kill</title>
	<path id="Outer Ring" fill-rule="evenodd" fill="#ffffff" d="m384 704c-177 0-320-143-320-320 0-177 143-320 320-320 177 0 320 143 320 320 0 177-143 320-320 320zm260-320c0-143.8-116.2-260-260-260-143.8 0-260 116.2-260 260 0 143.8 116.2 260 260 260 143.8 0 260-116.2 260-260z"/>
	<path id="Inner Ring" fill-rule="evenodd" fill="#ffffff" d="m384 584c-110.6 0-200-89.4-200-200 0-110.6 89.4-200 200-200 110.6 0 200 89.4 200 200 0 110.6-89.4 200-200 200zm140-200c0-77.4-62.6-140-140-140-77.4 0-140 62.6-140 140 0 77.4 62.6 140 140 140 77.4 0 140-62.6 140-140z"/>
	<path id="Inner Circle" fill="#ffffff" d="m384 464c-44.2 0-80-35.8-80-80 0-44.2 35.8-80 80-80 44.2 0 80 35.8 80 80 0 44.2-35.8 80-80 80z"/>
	<path id="Left Line" fill="#ffffff" d="m0.5 384c0-16.6 13.4-30 30-30h165c16.6 0 30 13.4 30 30 0 16.6-13.4 30-30 30h-165c-16.6 0-30-13.4-30-30z"/>
	<path id="Right Line" fill="#ffffff" d="m542.5 384c0-16.6 13.4-30 30-30h165c16.6 0 30 13.4 30 30 0 16.6-13.4 30-30 30h-165c-16.6 0-30-13.4-30-30z"/>
	<path id="Top Line" fill="#ffffff" d="m384 0.5c16.6 0 30 13.4 30 30v165c0 16.6-13.4 30-30 30-16.6 0-30-13.4-30-30v-165c0-16.6 13.4-30 30-30z"/>
	<path id="Bottom Line" fill="#ffffff" d="m384 542.5c16.6 0 30 13.4 30 30v165c0 16.6-13.4 30-30 30-16.6 0-30-13.4-30-30v-165c0-16.6 13.4-30 30-30z"/>
</svg>
