<svg version="1.2" xmlns="http://www.w3.org/2000/svg" viewBox="0 0 768 768" width="768" height="768">
	<title>LinkIcon</title>
	<defs>
		<linearGradient id="BackgroundGradient" x2="1" gradientUnits="userSpaceOnUse" gradientTransform="matrix(0,-768.112,768.112,0,384,768)">
			<stop offset="0" stop-color="#1a1a1a"/>
			<stop offset="1" stop-color="#333333"/>
		</linearGradient>
	</defs>
	<path id="Squircle" fill="url(#BackgroundGradient)" d="m0 128c0-70.7 57.3-128 128-128h512c70.7 0 128 57.3 128 128v512c0 70.7-57.3 128-128 128h-512c-70.7 0-128-57.3-128-128z"/>
	<path id="Blue Arc" fill="#0e63a4" d="m38.1 529.9c0 0 150.7-490.8 373.4-464.8 108.4 12.6 117.5 267.5 117.5 267.5 0 0-49.2-143.4-152.6-140.7-108.8 2.8-184.1 74.4-338.3 338z"/>
	<path id="Orange Arc" fill="#f96d2b" d="m483 58.4c0 0 349.7 376 215.8 555.9-65.1 87.5-290.4-32-290.4-32 0 0 148.8 29 198.1-61.9 52-95.6 27.7-196.6-123.5-462z"/>
	<path id="Green Arc" fill="#4c9b4c" d="m668.8 679.4c0 0-500.4 114.9-589.2-90.9-43.3-100.2 172.9-235.5 172.9-235.5 0 0-99.6 114.3-45.5 202.5 56.8 92.8 156.4 122.2 461.8 123.9z"/>
</svg>
