<svg version="1.2" xmlns="http://www.w3.org/2000/svg" viewBox="0 0 768 768" width="32" height="32">
	<title>Power</title>
	<path id="I/O" fill-rule="evenodd" fill="#ffffff" d="m426.7 105.3c0-22.8-19.1-41.3-42.7-41.3-23.6 0-42.7 18.5-42.7 41.3v289c0 22.9 19.1 41.3 42.7 41.3 23.6 0 42.7-18.4 42.7-41.3zm-192.7 114.3c18.1-14.5 20.5-40.6 5.5-58.1-15.1-17.6-42-19.9-60.2-5.3-70.4 56.7-115.3 142.4-115.3 238.2 0 170.9 143.3 309.6 320 309.6 176.7 0 320-138.7 320-309.6 0-95.8-45.1-181.5-115.5-238.2-18.1-14.6-45-12.2-60.1 5.3-15.1 17.4-12.5 43.6 5.5 58.1 51.8 41.7 84.6 104.6 84.6 174.8 0 125.4-105 227.1-234.6 227.1-129.6 0-234.7-101.7-234.7-227.1 0-70.2 32.9-133.1 84.8-174.8z"/>
</svg>
