<svg version="1.2" xmlns="http://www.w3.org/2000/svg" viewBox="0 0 768 768" width="32" height="32">
	<title>Reboot</title>
	<path id="Curved Arrow" fill-rule="evenodd" fill="#ffffff" d="m544.6 509.9h-66.2c-23.3 0-42.2-18.6-42.2-41.6 0-23.1 18.9-41.7 42.2-41.7h168.6c23.3 0 42.1 18.6 42.1 41.7v166.5c0 23.1-18.8 41.7-42.1 41.7-23.3 0-42.2-18.6-42.2-41.7v-66.6l-23.1 22.9c-115.3 113.9-302.1 113.9-417.3 0-115.3-113.9-115.3-298.4 0-412.3 115.2-113.8 302-113.8 417.3 0 16.4 16.3 16.4 42.7 0 59-16.5 16.3-43.3 16.3-59.7 0-82.3-81.3-215.8-81.3-298.1 0-82.3 81.3-82.3 213.2 0 294.5 82.3 81.3 215.8 81.3 298.1 0z"/>
</svg>
