<svg version="1.2" xmlns="http://www.w3.org/2000/svg" viewBox="0 0 768 768" width="32" height="32">
	<title>Reset</title>
	<path id="System" fill-rule="evenodd" fill="#ffffff" d="m64 571c0-16.6 13.4-30 30-30h97c49 50 117.3 81 193 81 75.7 0 144-31 193-81h97c16.6 0 30 13.4 30 30v71c0 16.6-13.4 30-30 30h-580c-16.6 0-30-13.4-30-30zm629 1c0-11.1-8.9-20-20-20-11.1 0-20 8.9-20 20 0 11.1 8.9 20 20 20 11.1 0 20-8.9 20-20z"/>
	<path id="Curved Arrow" fill-rule="evenodd" fill="#ffffff" d="m362.6 233.4l31.8 32.2c11.2 11.4 11.2 29.5 0 40.6-11.2 11.1-29.4 10.9-40.6-0.5l-81.1-82.2c-11.2-11.3-11.2-29.5 0.1-40.6l81.2-80.1c11.2-11.1 29.3-10.8 40.5 0.5 11.2 11.4 11.2 29.5 0 40.6l-32.5 32.1 22.3 0.2c111 1.4 200.8 92.5 200.8 203.5-0.1 110.9-90 199.7-201 198.3-110.9-1.4-200.8-92.5-200.7-203.4 0-15.9 12.9-28.6 28.7-28.4 15.9 0.2 28.7 13.2 28.7 29.1 0 79.3 64.2 144.3 143.4 145.3 79.3 1 143.5-62.4 143.6-141.7 0-79.2-64.2-144.3-143.4-145.3z"/>
</svg>
